<?xml version="1.0" standalone="no"?>
<!DOCTYPE svg PUBLIC "-//W3C//DTD SVG 20010904//EN"
 "http://www.w3.org/TR/2001/REC-SVG-20010904/DTD/svg10.dtd">
<svg version="1.0" xmlns="http://www.w3.org/2000/svg"
 width="250.000000pt" height="250.000000pt" viewBox="0 0 250.000000 250.000000"
 preserveAspectRatio="xMidYMid meet">
<metadata>
Created by potrace 1.10, written by Peter Selinger 2001-2011
</metadata>
<g transform="translate(0.000000,250.000000) scale(0.100000,-0.100000)"
fill="#000000" stroke="none">
<path d="M36 2454 c-6 -23 -1 -32 29 -57 33 -27 36 -33 30 -64 -3 -20 -2 -40
5 -48 8 -10 -1 -23 -40 -55 -28 -23 -49 -44 -47 -46 2 -3 18 2 36 9 17 7 29
16 25 20 -3 3 9 9 27 12 42 8 77 50 62 74 -6 9 -15 16 -21 16 -17 0 -23 11
-24 44 -1 17 -4 31 -8 31 -6 0 -30 44 -30 57 0 6 205 -2 235 -10 11 -3 70 -6
130 -7 143 -1 148 -5 147 -102 -1 -129 1 -120 -29 -116 -22 2 -29 9 -31 29 -2
15 -11 34 -21 43 -23 21 -125 23 -172 2 -30 -12 -41 -13 -63 -3 -14 7 -24 17
-22 23 2 6 -4 18 -15 27 -15 14 -23 14 -48 4 -28 -12 -29 -13 -11 -34 l18 -23
6 25 c7 29 29 34 24 5 -2 -10 6 -25 16 -33 18 -14 16 -16 -37 -31 -67 -20 -80
-33 -26 -28 21 2 42 8 45 13 3 5 34 9 70 9 48 0 64 4 64 14 0 24 29 41 49 29
10 -6 29 -9 44 -6 28 6 57 -11 57 -32 0 -9 -18 -12 -67 -9 -74 4 -78 -13 -4
-20 50 -5 148 -52 162 -78 5 -10 15 -18 20 -18 6 0 34 -20 61 -45 28 -25 54
-43 59 -40 15 10 31 -33 20 -53 -6 -9 -11 -12 -11 -7 0 13 -20 -16 -20 -30 0
-7 15 -9 35 -7 21 3 35 0 35 -7 0 -17 18 -13 40 9 11 11 16 20 12 20 -4 0 -13
-5 -20 -12 -9 -9 -12 -8 -12 5 0 11 8 17 21 17 11 0 30 5 41 11 14 8 23 8 31
0 8 -8 3 -11 -18 -12 -17 0 -24 -3 -17 -6 19 -7 64 6 57 17 -7 12 70 50 100
49 12 0 7 -5 -15 -12 -41 -15 -79 -36 -65 -36 6 0 21 6 35 14 14 8 42 14 63
15 33 0 37 3 37 26 0 22 -2 25 -15 14 -12 -10 -18 -10 -30 0 -12 10 -21 8 -47
-8 -40 -24 -186 -65 -206 -57 -7 3 -12 11 -9 18 7 21 -52 87 -78 87 -14 0 -29
9 -35 20 -6 11 -20 20 -30 20 -13 0 -20 7 -20 19 0 11 -5 21 -12 23 -6 2 -8 9
-4 16 4 6 8 68 9 137 2 105 0 125 -13 125 -23 0 -384 19 -476 25 l-82 5 -6
-26z"/>
<path d="M770 2449 c66 -6 62 -6 -33 -4 -140 3 -130 -17 12 -25 55 -3 101 -7
103 -10 2 -3 12 -23 23 -45 13 -28 20 -35 22 -23 3 9 -1 26 -6 37 -6 11 -11
26 -11 33 1 7 7 0 15 -17 12 -25 14 -26 9 -5 -18 72 -15 70 -116 68 l-93 -2
75 -7z"/>
<path d="M1823 2348 c-6 -8 -7 -36 -2 -73 4 -33 8 -69 8 -80 3 -38 20 8 23 61
l3 49 54 -1 c29 -1 58 -7 63 -12 15 -15 46 -107 58 -172 27 -146 38 -189 58
-222 12 -19 22 -43 22 -53 0 -29 55 -157 104 -238 35 -60 46 -89 46 -121 0
-51 34 -184 62 -246 57 -122 61 -155 65 -475 4 -283 -3 -410 -26 -455 -9 -17
-87 -38 -144 -38 -23 0 -49 -2 -57 -4 -9 -2 -15 5 -16 17 -4 121 -51 198 -152
255 -45 25 -65 56 -81 125 -7 28 -20 61 -30 74 -15 19 -21 22 -38 13 -11 -6
-23 -8 -27 -5 -3 3 -6 -1 -6 -11 0 -14 6 -16 34 -12 l33 5 6 -59 c4 -33 4 -66
1 -75 -4 -9 -3 -15 2 -13 5 2 19 -7 31 -19 21 -21 21 -21 1 -26 -22 -6 -20
-25 5 -41 21 -14 33 -1 17 19 -10 13 -9 15 8 15 12 0 24 -5 27 -10 4 -6 11 -8
16 -5 5 4 9 1 9 -5 0 -6 5 -8 10 -5 14 9 13 -8 -2 -23 -14 -14 1 -16 22 -2 11
7 20 -1 38 -31 31 -52 45 -99 29 -99 -7 -1 -1 -10 13 -22 14 -11 20 -23 14
-25 -6 -2 -19 -9 -28 -16 -16 -12 -15 -15 11 -48 15 -20 34 -34 41 -31 7 2 9
9 5 15 -4 7 0 8 11 4 10 -4 15 -3 11 3 -3 5 6 12 21 16 15 4 29 2 33 -4 9 -15
43 -10 65 11 22 19 46 23 46 6 0 -7 12 5 26 27 16 22 29 61 34 94 4 32 18 77
30 101 21 44 50 237 50 343 0 74 -29 156 -59 168 -17 6 -21 12 -13 17 9 5 6
23 -13 70 -15 35 -24 71 -23 80 2 9 14 -14 27 -51 12 -37 27 -70 32 -73 11 -7
12 18 2 29 -5 4 -9 12 -9 17 -1 5 -2 10 -4 12 -1 1 -3 10 -5 20 -2 10 -7 26
-11 35 -4 9 -8 20 -8 24 -1 3 -4 10 -8 14 -5 4 -8 15 -8 24 0 9 -6 25 -14 35
-13 18 -14 17 -9 -10 3 -20 -5 -9 -26 34 -17 35 -30 66 -28 68 3 2 10 -10 17
-27 7 -16 17 -30 22 -30 5 0 7 3 5 8 -46 88 -61 175 -29 178 6 1 14 2 17 3 3
0 -2 15 -10 32 -21 39 -28 31 -36 -39 l-6 -57 -2 60 c0 36 4 66 11 73 8 8 8
12 1 12 -12 0 -46 49 -46 67 0 7 -5 9 -10 6 -7 -4 -8 1 -3 13 4 10 4 15 0 11
-12 -11 -41 46 -100 195 -33 82 -57 160 -59 188 -1 27 -5 52 -8 57 -5 9 -20
113 -17 127 1 5 -9 14 -22 20 -12 6 -24 20 -26 31 -4 20 -4 20 11 1 14 -19 15
-18 22 13 9 40 3 46 -41 43 -20 -2 -33 1 -31 5 3 4 -14 9 -36 10 -23 1 -43 6
-45 12 -5 15 -47 14 -59 -1z m617 -1446 c15 -84 -11 -343 -31 -311 -4 7 -6 85
-3 173 2 88 4 161 4 163 0 11 27 -12 30 -25z"/>
<path d="M1035 2330 c39 -4 93 -7 120 -7 l50 0 -50 7 c-27 5 -81 8 -120 8
l-70 -1 70 -7z"/>
<path d="M920 2322 c0 -12 41 -19 169 -28 63 -4 92 -3 87 4 -3 6 -45 13 -94
17 -48 3 -104 8 -124 11 -22 4 -38 2 -38 -4z"/>
<path d="M1210 2196 l0 -115 44 -26 c28 -17 49 -38 61 -64 11 -25 28 -44 46
-51 31 -13 32 -15 20 -45 -7 -16 -2 -22 20 -32 27 -11 89 -94 89 -119 0 -8 12
-9 42 -4 44 8 57 1 58 -30 0 -8 9 -30 20 -48 26 -43 26 -65 0 -57 -12 4 -20 2
-20 -5 0 -7 9 -14 20 -17 11 -3 20 -9 20 -15 0 -26 -33 -164 -55 -228 -24 -70
-24 -74 -8 -124 17 -56 39 -88 31 -46 -3 14 -9 34 -13 45 -7 20 -6 20 9 1 17
-22 29 -15 40 21 5 16 2 23 -14 28 -20 6 -29 45 -9 45 25 0 49 -22 49 -45 0
-14 5 -25 10 -25 6 0 10 9 10 21 0 12 5 19 13 17 25 -9 17 -40 -25 -98 -35
-49 -47 -59 -65 -55 -34 8 -28 -15 7 -28 21 -8 30 -18 30 -34 0 -40 85 -197
114 -210 14 -6 26 -9 26 -5 0 3 -20 43 -45 89 -25 46 -52 104 -61 129 l-15 46
36 55 c52 79 47 110 -23 143 -60 28 -58 17 -28 155 24 110 21 166 -14 235 -31
62 -52 80 -94 80 -18 0 -30 9 -42 31 -8 17 -29 44 -45 60 -16 16 -29 33 -29
38 0 6 -20 34 -44 63 -70 83 -90 103 -111 115 -17 10 -20 23 -22 97 -2 100
-16 93 140 76 51 -5 151 -14 223 -21 l131 -11 17 -34 c14 -31 16 -100 16 -634
0 -440 -3 -599 -11 -602 -15 -5 6 -48 24 -48 17 0 13 1221 -4 1300 -7 30 -12
59 -11 63 1 5 -4 4 -13 0 -13 -8 -250 8 -482 32 l-63 7 0 -116z"/>
<path d="M655 2150 c-8 -12 20 -24 35 -15 6 3 8 11 5 16 -8 12 -32 12 -40 -1z"/>
<path d="M1067 2103 c-40 -21 -27 -27 19 -8 29 12 39 13 45 3 4 -7 5 -16 3
-20 -3 -4 5 -8 18 -8 17 0 19 3 9 9 -11 7 -11 9 0 13 20 8 9 16 -31 21 -21 4
-46 0 -63 -10z"/>
<path d="M1938 1745 c-3 -117 -2 -125 16 -125 17 0 18 6 13 60 l-5 60 59 0
c46 0 59 3 59 15 0 12 -13 15 -60 15 l-60 0 0 35 0 35 70 0 c56 0 70 3 70 15
0 12 -15 15 -79 15 l-80 0 -3 -125z"/>
<path d="M1938 1305 c-3 -117 -2 -125 16 -125 17 0 18 6 13 60 l-5 60 59 0
c46 0 59 3 59 15 0 12 -13 15 -59 15 l-59 0 0 35 0 35 69 0 c55 0 69 3 69 15
0 12 -15 15 -79 15 l-80 0 -3 -125z"/>
<path d="M1918 866 c-3 -118 -2 -126 16 -126 17 0 18 6 13 50 -6 50 -6 50 23
50 22 0 38 -11 70 -50 24 -29 50 -50 62 -50 16 0 12 9 -27 54 l-46 54 26 26
c30 30 32 55 6 87 -14 18 -31 23 -79 27 l-61 4 -3 -126z m120 82 c33 -33 -1
-78 -58 -78 l-38 0 0 45 1 45 42 0 c22 0 46 -5 53 -12z"/>
<path d="M1813 898 c-4 -7 -9 -31 -10 -53 -1 -22 -5 -52 -7 -68 -5 -25 -4 -27
22 -21 35 9 35 9 22 34 -6 11 -12 43 -12 70 -1 54 -3 57 -15 38z"/>
<path d="M2412 321 c-18 -22 -32 -44 -32 -48 0 -5 -20 -29 -45 -53 -47 -46
-57 -70 -27 -70 16 1 76 72 89 107 4 10 16 32 28 48 32 43 37 55 27 55 -5 0
-23 -18 -40 -39z"/>
<path d="M2225 141 c-7 -12 -64 -41 -80 -41 -19 0 -48 -26 -42 -37 9 -15 89 4
100 23 4 8 17 14 27 14 13 0 20 7 20 19 0 22 -16 36 -25 22z"/>
<path d="M2005 93 c-11 -3 -31 -15 -45 -28 -14 -13 -36 -25 -50 -27 -14 -2
-26 -11 -28 -21 -3 -15 1 -17 25 -11 15 3 41 13 57 20 16 8 44 14 63 14 18 0
33 5 33 11 0 15 -20 49 -28 48 -4 -1 -16 -3 -27 -6z"/>
</g>
</svg>
